<svg xmlns="http://www.w3.org/2000/svg" width="17.05" height="13.344" viewBox="0 0 17.05 13.344"><defs><style>.a{fill:none;stroke-miterlimit:10;}.b,.c{stroke:none;}.c{fill:#666;}</style></defs><g class="a" transform="translate(-45.403 -281.745)"><path class="b" d="M53.932,295.089H47.291A1.838,1.838,0,0,1,45.4,293.08v-9.328a1.837,1.837,0,0,1,1.888-2.007H60.556a1.839,1.839,0,0,1,1.9,2.017q0,4.692,0,9.385a1.854,1.854,0,0,1-1.335,1.877,2.07,2.07,0,0,1-.544.062Q57.253,295.092,53.932,295.089Zm-.005-.754h6.641a1.11,1.11,0,0,0,1.174-1.239v-9.347a1.111,1.111,0,0,0-1.18-1.25H47.3a1.111,1.111,0,0,0-1.183,1.247v9.329a1.114,1.114,0,0,0,1.19,1.26Z"/><path class="c" d="M 56.16067123413086 295.089111328125 C 53.2038688659668 295.0890808105469 50.24661636352539 295.0889892578125 47.29099655151367 295.0889892578125 C 46.15299606323242 295.0880126953125 45.40299606323242 294.2909851074219 45.40299606323242 293.0799865722656 C 45.40299606323242 289.9710083007812 45.40299606323242 286.8619995117188 45.40299606323242 283.7520141601562 C 45.40299606323242 282.5419921875 46.15299606323242 281.7449951171875 47.29099655151367 281.7449951171875 C 51.71299743652344 281.7449951171875 56.13399887084961 281.7449951171875 60.55599594116211 281.7449951171875 C 61.70599746704102 281.7449951171875 62.45199584960938 282.5390014648438 62.45299911499023 283.7619934082031 C 62.45299911499023 286.8900146484375 62.45399856567383 290.0190124511719 62.45199584960938 293.1470031738281 C 62.45199584960938 294.0669860839844 61.93299865722656 294.7999877929688 61.11699676513672 295.0239868164062 C 60.94199752807617 295.0719909667969 60.75499725341797 295.0859985351562 60.572998046875 295.0859985351562 C 59.10261535644531 295.0886535644531 57.63164138793945 295.089111328125 56.16067123413086 295.089111328125 Z M 47.29599761962891 282.4989929199219 C 46.54899597167969 282.4989929199219 46.11299896240234 282.9580078125 46.11299896240234 283.7460021972656 C 46.11299896240234 286.8559875488281 46.11299896240234 289.9649963378906 46.11299896240234 293.0750122070312 C 46.11299896240234 293.8779907226562 46.54499816894531 294.3349914550781 47.30299758911133 294.3349914550781 C 51.72499847412109 294.3349914550781 56.14599609375 294.3349914550781 60.56799697875977 294.3349914550781 C 61.30299758911133 294.3349914550781 61.74199676513672 293.8710021972656 61.74199676513672 293.0960083007812 C 61.74199676513672 289.9800109863281 61.74199676513672 286.864013671875 61.74199676513672 283.7489929199219 C 61.74199676513672 282.9580078125 61.30799865722656 282.4989929199219 60.56199645996094 282.4989929199219 C 56.13999557495117 282.4989929199219 51.71799850463867 282.4989929199219 47.29599761962891 282.4989929199219 Z"/></g><g class="a" transform="translate(-45.403 -281.745)"><path class="b" d="M50.5,292.459H48.137c-.349,0-.467-.131-.459-.5a2.94,2.94,0,0,1,2.673-2.969,2.876,2.876,0,0,1,2.943,2.72c.008.087.019.175.022.262.012.342-.117.489-.438.49C52.085,292.461,51.292,292.459,50.5,292.459Zm2.071-.764a2.072,2.072,0,0,0-4.138,0Z"/><path class="c" d="M 52.08499908447266 292.4598999023438 C 51.03167724609375 292.4598693847656 49.97861099243164 292.4594116210938 48.92470550537109 292.4594421386719 C 48.66218948364258 292.4594421386719 48.39970016479492 292.4593505859375 48.13700103759766 292.4590148925781 C 47.78800201416016 292.4590148925781 47.67000198364258 292.3280029296875 47.67800140380859 291.9559936523438 C 47.71200180053711 290.3599853515625 48.88999938964844 289.0509948730469 50.35100173950195 288.9869995117188 C 51.87392044067383 288.9180297851562 53.13999557495117 290.0899963378906 53.29399871826172 291.7070007324219 C 53.302001953125 291.7940063476562 53.3129997253418 291.8819885253906 53.31600189208984 291.968994140625 C 53.32799911499023 292.3110046386719 53.19900131225586 292.4580078125 52.87800216674805 292.4590148925781 C 52.61368179321289 292.4596862792969 52.34931945800781 292.4598999023438 52.08499908447266 292.4598999023438 Z M 50.49624633789062 289.7392578125 C 50.45633316040039 289.7392578125 50.4162483215332 289.7405090332031 50.37599945068359 289.7430114746094 C 49.37300109863281 289.8059997558594 48.43600082397461 290.7409973144531 48.43199920654297 291.6950073242188 L 52.56999969482422 291.6950073242188 C 52.45154190063477 290.5826721191406 51.53726196289062 289.7392578125 50.49624633789062 289.7392578125 Z"/></g><g class="a" transform="translate(-45.403 -281.745)"><path class="b" d="M50.5,284.372a1.95,1.95,0,1,1-1.837,1.931A1.889,1.889,0,0,1,50.5,284.372Zm-1.126,1.944a1.125,1.125,0,1,0,1.131-1.185A1.153,1.153,0,0,0,49.375,286.316Z"/><path class="c" d="M 50.49397277832031 284.3719787597656 C 50.49632263183594 284.3719787597656 50.49865341186523 284.3720092773438 50.50100326538086 284.3720092773438 C 51.52300262451172 284.3760070800781 52.33500289916992 285.2470092773438 52.33100128173828 286.3309936523438 C 52.32600402832031 287.3989868164062 51.50046920776367 288.2680969238281 50.49200057983398 288.2650146484375 C 49.47800064086914 288.2630004882812 48.65700149536133 287.3819885253906 48.66400146484375 286.3030090332031 C 48.67098617553711 285.2294921875 49.48423385620117 284.3719787597656 50.49397277832031 284.3719787597656 Z M 50.49600219726562 287.5130004882812 C 51.1140022277832 287.5130004882812 51.6150016784668 286.9880065917969 51.62000274658203 286.3359985351562 C 51.62500381469727 285.6679992675781 51.13100051879883 285.1340026855469 50.50600051879883 285.1310119628906 C 50.50361633300781 285.1310119628906 50.50120544433594 285.1309814453125 50.49882507324219 285.1309814453125 C 49.8722038269043 285.1309814453125 49.37699508666992 285.6525268554688 49.37500381469727 286.3160095214844 C 49.37300109863281 286.9809875488281 49.87100219726562 287.5130004882812 50.49600219726562 287.5130004882812 Z"/></g><g class="a" transform="translate(-45.403 -281.745)"><path class="b" d="M57.736,286.381c-.674,0-1.347,0-2.021,0a.367.367,0,0,1-.4-.392.361.361,0,0,1,.379-.359c.438,0,.875,0,1.313,0q1.374,0,2.748,0a.377.377,0,1,1,.006.752C59.084,286.383,58.41,286.381,57.736,286.381Z"/><path class="c" d="M 58.89059829711914 286.3816528320312 C 58.12087631225586 286.3816833496094 57.35117721557617 286.3816833496094 56.58200454711914 286.3816528320312 C 56.29306030273438 286.3816528320312 56.00415802001953 286.3812866210938 55.71500015258789 286.3800048828125 C 55.46200180053711 286.3800048828125 55.30400085449219 286.2219848632812 55.3120002746582 285.9880065917969 C 55.31999969482422 285.7780151367188 55.46900177001953 285.6310119628906 55.69100189208984 285.6289978027344 C 56.12899780273438 285.6250305175781 56.56599807739258 285.6270141601562 57.00400161743164 285.6270141601562 C 57.91999816894531 285.6270141601562 58.83599472045898 285.6260070800781 59.75199890136719 285.6279907226562 C 60 285.6279907226562 60.1510009765625 285.7720031738281 60.15200042724609 286.0010070800781 C 60.15399932861328 286.2309875488281 60.00299835205078 286.3800048828125 59.75799942016602 286.3800048828125 C 59.4688835144043 286.3812866210938 59.17971420288086 286.3816528320312 58.89059829711914 286.3816528320312 Z"/></g><g class="a" transform="translate(-45.403 -281.745)"><path class="b" d="M57.746,288.04q1,0,2,0a.377.377,0,1,1,.045.752c-.272.007-.544,0-.816,0H55.823c-.053,0-.106,0-.159,0a.364.364,0,0,1-.352-.37.359.359,0,0,1,.36-.38c.485-.006.969,0,1.454,0Z"/><path class="c" d="M 56.29399108886719 288.0386962890625 C 56.77804565429688 288.0386657714844 57.26379776000977 288.0400085449219 57.74600219726562 288.0400085449219 C 58.41400146484375 288.0400085449219 59.08200073242188 288.0390014648438 59.75 288.0400085449219 C 59.96200180053711 288.0409851074219 60.10200119018555 288.1430053710938 60.14300155639648 288.3179931640625 C 60.20100021362305 288.5660095214844 60.04500198364258 288.7839965820312 59.79500198364258 288.7919921875 C 59.52300262451172 288.7990417480469 59.25101089477539 288.7940368652344 58.97900009155273 288.7940063476562 C 57.90063858032227 288.7939758300781 56.82225799560547 288.7945251464844 55.74390029907227 288.7944946289062 C 55.71726608276367 288.7944946289062 55.69063568115234 288.7940063476562 55.66400146484375 288.7919921875 C 55.45800018310547 288.7780151367188 55.31500244140625 288.6270141601562 55.3120002746582 288.4219970703125 C 55.31000137329102 288.2090148925781 55.45700073242188 288.0450134277344 55.67200088500977 288.0419921875 C 55.87945175170898 288.0394287109375 56.08675003051758 288.0386962890625 56.29399108886719 288.0386962890625 Z"/></g><g class="a" transform="translate(-45.403 -281.745)"><path class="b" d="M57.735,291.206c-.68,0-1.36,0-2.039,0a.371.371,0,0,1-.369-.485.347.347,0,0,1,.348-.267q2.057,0,4.114,0a.376.376,0,0,1-.015.751C59.094,291.208,58.415,291.206,57.735,291.206Z"/><path class="c" d="M 56.51161956787109 291.2070922851562 C 56.2396240234375 291.2070922851562 55.96774291992188 291.2066040039062 55.69599914550781 291.2049865722656 C 55.427001953125 291.2030029296875 55.24900054931641 290.9660034179688 55.32699966430664 290.7200012207031 C 55.38199996948242 290.5469970703125 55.50199890136719 290.4540100097656 55.67499923706055 290.4530029296875 C 57.04599380493164 290.4520263671875 58.41799163818359 290.450927734375 59.78900146484375 290.4540100097656 C 60.00799942016602 290.4540100097656 60.15200042724609 290.6119995117188 60.15200042724609 290.8280029296875 C 60.15299987792969 291.0509948730469 60.00600051879883 291.2040100097656 59.77400207519531 291.2049865722656 C 59.0940055847168 291.2079772949219 58.41500091552734 291.2059936523438 57.73500061035156 291.2059936523438 C 57.32714080810547 291.2059936523438 56.91926574707031 291.2070922851562 56.51161956787109 291.2070922851562 Z"/></g></svg>