<svg xmlns="http://www.w3.org/2000/svg" width="15.034" height="14.094" viewBox="0 0 15.034 14.094"><defs><style>.a{fill:#666;}</style></defs><path class="a" d="M47.818,360.2v-.94h.94V351.74a1.409,1.409,0,0,1,1.409-1.409H60.5a1.409,1.409,0,0,1,1.409,1.409h0v7.517h.94v.94Zm13.155-4.088a2.106,2.106,0,0,1-3.759-1.315,2.058,2.058,0,0,1,.014-.235h.949a1.175,1.175,0,0,0,2.3.468,1.153,1.153,0,0,0,0-.468h.494V351.74a.47.47,0,0,0-.47-.469H50.167a.47.47,0,0,0-.47.469v2.819h.494a1.175,1.175,0,0,0,2.3.468,1.189,1.189,0,0,0,0-.468h1.456a1.175,1.175,0,0,0,2.3.468,1.189,1.189,0,0,0,0-.468h.95a2.114,2.114,0,0,1-3.98,1.2,2.1,2.1,0,0,1-3.524.35v3.148H60.973Zm-2.819-8.6h.939v2.819h-.939Zm0-1.409h.939v.939h-.939Zm-3.289,1.409h.94v2.819h-.94Zm0-1.409h.94v.939h-.94Zm-2.819,1.409h.94v2.819h-.94Zm0-1.409h.94v.939h-.94Z" transform="translate(-47.818 -346.103)"/></svg>